<?xml version="1.0" encoding="UTF-8"?>
<svg width="30px" height="20px" viewBox="0 0 30 20" version="1.1" xmlns="http://www.w3.org/2000/svg" xmlns:xlink="http://www.w3.org/1999/xlink">
    <title>tagHole</title>
    <g id="tagHole" stroke="none" stroke-width="1" fill="none" fill-rule="evenodd">
        <path d="M18.6566163,0 C20.5259053,0 22.293819,0.849721564 23.4615574,2.30935606 L29.3064025,8.07886964 C30.2053195,9.20261207 30.2053195,10.7992339 29.3064025,11.9228994 L23.4615574,17.6906747 C22.293819,19.1503092 20.5259053,20 18.6566163,20 L4.61495862,20 C2.06617851,20 -1.24344979e-14,17.9337292 -1.24344979e-14,15.3850414 L-1.24344979e-14,4.61495862 C-1.24344979e-14,2.06617851 2.06617851,0 4.61495862,0 Z M20.8448759,7.6915977 C19.570455,7.6915977 18.5373965,8.72465619 18.5373965,9.99907701 C18.5373965,11.2734978 19.570455,12.3065563 20.8448759,12.3065563 C22.1192967,12.3065563 23.1523552,11.2734978 23.1523552,9.99907701 C23.1523552,8.72465619 22.1192967,7.6915977 20.8448759,7.6915977 Z" id="Combined-Shape" fill="#FFFFFF" fill-rule="nonzero"></path>
    </g>
</svg>