<?xml version="1.0" encoding="UTF-8"?>
<svg width="30px" height="26px" viewBox="0 0 30 26" version="1.1" xmlns="http://www.w3.org/2000/svg" xmlns:xlink="http://www.w3.org/1999/xlink">
    <title>tagHole_26</title>
    <g id="tagHole_26" stroke="none" stroke-width="1" fill="none" fill-rule="evenodd">
        <path d="M6,-1.77635684e-14 C2.68628,-1.77635684e-14 5.32907052e-14,2.68628 5.32907052e-14,6 L5.32907052e-14,20.0024 C5.32907052e-14,23.316 2.68628,26.0024 6,26.0024 L15.155,26.0024 C17.5853,26.0024 19.8838,24.8977 21.402,23 L29.001,15.5012 C30.1697,14.0403 30.1697,11.9645 29.001,10.5035 L21.402,3.00244 C19.8838,1.10474 17.5853,-1.77635684e-14 15.155,-1.77635684e-14 L6,-1.77635684e-14 Z M18,16 C19.6569,16 21,14.6569 21,13 C21,11.3431 19.6569,10 18,10 C16.3431,10 15,11.3431 15,13 C15,14.6569 16.3431,16 18,16 Z" id="Shape" fill="#FFFFFF"></path>
    </g>
</svg>